<?xml version="1.0" encoding="UTF-8"?>
<svg xmlns="http://www.w3.org/2000/svg" version="1.1" id="frame-button" width="100" height="105">
  <!--Con los botones no me quise complicar la vida y decidí usar: Inkscape.-->
  <!--Begin Inkscape:-->
  <!--Begin Title_type_button:-->
  <text xml:space="preserve" style="font-size:10.6667px;line-height:1.25;inline-size:78.9761;fill:#999;stroke-width:0.665613"
    x="10.659509" y="21.45525" id="title_type_sound" class="text_svg_"
    transform="matrix(1.5023755,0,-0.06436638,0.66561256,0,0)" >
    <tspan x="10.659509" y="21.45525" id="text_title_type_sound">Type  sounds</tspan>
  </text>
  <!--END Title_type_button.-->
  <!--Begin Triangle:-->
  <ellipse fill="#000" cx="65.734413" cy="25.895372" rx="53.8983" ry="8.0834103" id="triangle" class="type_button"/>
  <text xml:space="preserve" x="10.659509" y="21.45525" id="text_triangle" class="text_svg_ text_type_sound_2"
    transform="matrix(1.5023755,0,-0.06436638,0.66561256,18.591549,13.943662)">
    <tspan
      x="12" y="21.45525">triangle</tspan>
  </text>
  <!--END Triangle.-->
  <!--Begin sawtooth:-->
  <ellipse fill="#000" cx="65.734406" cy="45.814884" rx="53.8983" ry="8.0834103" id="sawtooth" class="type_button"/>
  <text xml:space="preserve" x="10.659509" y="21.45525" id="text_sawtooth" class="text_svg_ text_type_sound_2"
    transform="matrix(1.5023755,0,-0.06436638,0.66561256,15.789155,34.825883)">
    <tspan x="10.659509" y="21.45525">sawtooth</tspan>
  </text>
  <!--END sawtooth.-->
  <!--Begin square:-->
  <ellipse fill="#000" cx="65.734413" cy="67.726357" rx="53.8983" ry="8.0834103" id="square" class="type_button"/>
  <text xml:space="preserve" x="10.659509" y="21.45525" id="text_square" class="text_svg_ text_type_sound_2" transform="matrix(1.5023755,0,-0.06436638,0.66561256,24.420949,54.745404)">
    <tspan x="10.659509" y="21.45525">square</tspan>
  </text>
  <!--End square.-->
  <!--Begin sine:-->
  <ellipse fill="#000" cx="65.734413" cy="88.30986" rx="53.8983" ry="8.0834103" id="sine" class="type_button"/>
  <text xml:space="preserve" class="text_type_sound_2 text_svg_" x="10.659509" y="21.45525" id="text_sine"
    transform="matrix(1.5023755,0,-0.06436638,0.66561256,34.380711,76.656872)">
    <tspan x="10.659509" y="21.45525">sine</tspan>
  </text>
  <!--END sine.-->
  <!--Begin Title_sound_duration:-->
  <text style="font-size:14.1089px;line-height:1.25;fill:#808080;" xml:space="preserve"
    transform="matrix(1,0,0,0.5715693,-108.22938,-14.654066)" id="title_sound-duration" class="text_svg_">
    <tspan x="274.22461" y="50.055571">Sound duration</tspan>
  </text>
  <!--End Title_sound_duration.-->
  <!--Begin Normal:-->
    <!--NORMAL==X1-->
  <text xml:space="preserve" transform="matrix(1.1364178,0,0,1.0154322,-140.21816,-20.280127)" id="text_X1" class="text_svg_ text_svg_2">
    <tspan x="274.22461" y="50.055571">Normal</tspan>
  </text>
  <ellipse fill="#444" cx="244.67807" cy="25.563379" rx="7.864501" ry="6.5365324" id="X1" class="sound-duration_button"/>
  <!--End Normal.-->
  <!--Begin X2:-->
  <text xml:space="preserve" transform="matrix(1.0019012,0,0,1.0154322,-102.9692,-7.3225947)" id="text_X2" class="text_svg_ text_svg_2">
    <tspan x="274.22461" y="50.055571">X2</tspan>
  </text>
  <ellipse fill="#444" cx="245.01006" cy="42.494972" rx="7.864501" ry="6.5365324" id="X2" class="sound-duration_button"/>
  <!--End X2.-->
  <!--Begin X4:-->
  <text xml:space="preserve" transform="matrix(1.0019012,0,0,1.0154322,-102.58928,11.591101)" id="text_X4" class="text_svg_ text_svg_2">
    <tspan x="274.22461" y="50.055571">X4</tspan>
  </text>
  <ellipse fill="#444" cx="245.67404" cy="59.758553" rx="7.864501" ry="6.5365324" id="X4" class="sound-duration_button"/>
  <!--End X4.-->
  <!--Begin X6:-->
  <text xml:space="preserve" transform="matrix(1.0019012,0,0,1.0154322,-102.58926,28.854682)" id="text_X6" class="text_svg_ text_svg_2">
    <tspan x="274.22461" y="50.055571">X6</tspan>
  </text>
  <ellipse fill="#444" cx="246.33801" cy="77.686111" rx="7.864501" ry="6.5365324" id="X6" class="sound-duration_button"/>
  <!--End X6.-->
  <!--End Inkscape.-->
</svg>